<svg xmlns="http://www.w3.org/2000/svg" aria-hidden="true"><defs><symbol id="flatpaper-icon-lucide-layout-grid" viewBox="0 0 24 24" fill="none" stroke="currentColor" stroke-width="1.8" stroke-linecap="round" stroke-linejoin="round"><rect width="7" height="7" x="3" y="3" rx="1"/><rect width="7" height="7" x="14" y="3" rx="1"/><rect width="7" height="7" x="14" y="14" rx="1"/><rect width="7" height="7" x="3" y="14" rx="1"/></symbol><symbol id="flatpaper-icon-lucide-house" viewBox="0 0 24 24" fill="none" stroke="currentColor" stroke-width="1.8" stroke-linecap="round" stroke-linejoin="round"><path d="M15 21v-8a1 1 0 0 0-1-1h-4a1 1 0 0 0-1 1v8"/><path d="M3 10a2 2 0 0 1 .709-1.528l7-6a2 2 0 0 1 2.582 0l7 6A2 2 0 0 1 21 10v9a2 2 0 0 1-2 2H5a2 2 0 0 1-2-2z"/></symbol><symbol id="flatpaper-icon-lucide-archive" viewBox="0 0 24 24" fill="none" stroke="currentColor" stroke-width="1.8" stroke-linecap="round" stroke-linejoin="round"><rect width="20" height="5" x="2" y="3" rx="1"/><path d="M4 8v11a2 2 0 0 0 2 2h12a2 2 0 0 0 2-2V8"/><path d="M10 12h4"/></symbol><symbol id="flatpaper-icon-lucide-link" viewBox="0 0 24 24" fill="none" stroke="currentColor" stroke-width="1.8" stroke-linecap="round" stroke-linejoin="round"><path d="M10 13a5 5 0 0 0 7.54.54l3-3a5 5 0 0 0-7.07-7.07l-1.72 1.71"/><path d="M14 11a5 5 0 0 0-7.54-.54l-3 3a5 5 0 0 0 7.07 7.07l1.71-1.71"/></symbol><symbol id="flatpaper-icon-lucide-user" viewBox="0 0 24 24" fill="none" stroke="currentColor" stroke-width="1.8" stroke-linecap="round" stroke-linejoin="round"><path d="M19 21v-2a4 4 0 0 0-4-4H9a4 4 0 0 0-4 4v2"/><circle cx="12" cy="7" r="4"/></symbol><symbol id="flatpaper-icon-lucide-search" viewBox="0 0 24 24" fill="none" stroke="currentColor" stroke-width="1.8" stroke-linecap="round" stroke-linejoin="round"><path d="m21 21-4.34-4.34"/><circle cx="11" cy="11" r="8"/></symbol><symbol id="flatpaper-icon-lucide-x" viewBox="0 0 24 24" fill="none" stroke="currentColor" stroke-width="1.8" stroke-linecap="round" stroke-linejoin="round"><path d="M18 6 6 18"/><path d="m6 6 12 12"/></symbol><symbol id="flatpaper-icon-lucide-sun" viewBox="0 0 24 24" fill="none" stroke="currentColor" stroke-width="1.8" stroke-linecap="round" stroke-linejoin="round"><circle cx="12" cy="12" r="4"/><path d="M12 2v2"/><path d="M12 20v2"/><path d="m4.93 4.93 1.41 1.41"/><path d="m17.66 17.66 1.41 1.41"/><path d="M2 12h2"/><path d="M20 12h2"/><path d="m6.34 17.66-1.41 1.41"/><path d="m19.07 4.93-1.41 1.41"/></symbol><symbol id="flatpaper-icon-lucide-moon" viewBox="0 0 24 24" fill="none" stroke="currentColor" stroke-width="1.8" stroke-linecap="round" stroke-linejoin="round"><path d="M20.985 12.486a9 9 0 1 1-9.473-9.472c.405-.022.617.46.402.803a6 6 0 0 0 8.268 8.268c.344-.215.825-.004.803.401"/></symbol><symbol id="flatpaper-icon-lucide-palette" viewBox="0 0 24 24" fill="none" stroke="currentColor" stroke-width="1.8" stroke-linecap="round" stroke-linejoin="round"><path d="M12 22a1 1 0 0 1 0-20 10 9 0 0 1 10 9 5 5 0 0 1-5 5h-2.25a1.75 1.75 0 0 0-1.4 2.8l.3.4a1.75 1.75 0 0 1-1.4 2.8z"/><circle cx="13.5" cy="6.5" r=".5" fill="currentColor"/><circle cx="17.5" cy="10.5" r=".5" fill="currentColor"/><circle cx="6.5" cy="12.5" r=".5" fill="currentColor"/><circle cx="8.5" cy="7.5" r=".5" fill="currentColor"/></symbol><symbol id="flatpaper-icon-fa-brands-github" viewBox="0 0 496 512" fill="currentColor"><path d="M165.9 397.4c0 2-2.3 3.6-5.2 3.6-3.3.3-5.6-1.3-5.6-3.6 0-2 2.3-3.6 5.2-3.6 3-.3 5.6 1.3 5.6 3.6zm-31.1-4.5c-.7 2 1.3 4.3 4.3 4.9 2.6 1 5.6 0 6.2-2s-1.3-4.3-4.3-5.2c-2.6-.7-5.5.3-6.2 2.3zm44.2-1.7c-2.9.7-4.9 2.6-4.6 4.9.3 2 2.9 3.3 5.9 2.6 2.9-.7 4.9-2.6 4.6-4.6-.3-1.9-3-3.2-5.9-2.9zM244.8 8C106.1 8 0 113.3 0 252c0 110.9 69.8 205.8 169.5 239.2 12.8 2.3 17.3-5.6 17.3-12.1 0-6.2-.3-40.4-.3-61.4 0 0-70 15-84.7-29.8 0 0-11.4-29.1-27.8-36.6 0 0-22.9-15.7 1.6-15.4 0 0 24.9 2 38.6 25.8 21.9 38.6 58.6 27.5 72.9 20.9 2.3-16 8.8-27.1 16-33.7-55.9-6.2-112.3-14.3-112.3-110.5 0-27.5 7.6-41.3 23.6-58.9-2.6-6.5-11.1-33.3 2.6-67.9 20.9-6.5 69 27 69 27 20-5.6 41.5-8.5 62.8-8.5s42.8 2.9 62.8 8.5c0 0 48.1-33.6 69-27 13.7 34.7 5.2 61.4 2.6 67.9 16 17.7 25.8 31.5 25.8 58.9 0 96.5-58.9 104.2-114.8 110.5 9.2 7.9 17 22.9 17 46.4 0 33.7-.3 75.4-.3 83.6 0 6.5 4.6 14.4 17.3 12.1C428.2 457.8 496 362.9 496 252 496 113.3 383.5 8 244.8 8zM97.2 352.9c-1.3 1-1 3.3.7 5.2 1.6 1.6 3.9 2.3 5.2 1 1.3-1 1-3.3-.7-5.2-1.6-1.6-3.9-2.3-5.2-1zm-10.8-8.1c-.7 1.3.3 2.9 2.3 3.9 1.6 1 3.6.7 4.3-.7.7-1.3-.3-2.9-2.3-3.9-2-.6-3.6-.3-4.3.7zm32.4 35.6c-1.6 1.3-1 4.3 1.3 6.2 2.3 2.3 5.2 2.6 6.5 1 1.3-1.3.7-4.3-1.3-6.2-2.2-2.3-5.2-2.6-6.5-1zm-11.4-14.7c-1.6 1-1.6 3.6 0 5.9 1.6 2.3 4.3 3.3 5.6 2.3 1.6-1.3 1.6-3.9 0-6.2-1.4-2.3-4-3.3-5.6-2z"/></symbol><symbol id="flatpaper-icon-fa-brands-twitter" viewBox="0 0 512 512" fill="currentColor"><path d="M459.37 151.716c.325 4.548.325 9.097.325 13.645 0 138.72-105.583 298.558-298.558 298.558-59.452 0-114.68-17.219-161.137-47.106 8.447.974 16.568 1.299 25.34 1.299 49.055 0 94.213-16.568 130.274-44.832-46.132-.975-84.792-31.188-98.112-72.772 6.498.974 12.995 1.624 19.818 1.624 9.421 0 18.843-1.3 27.614-3.573-48.081-9.747-84.143-51.98-84.143-102.985v-1.299c13.969 7.797 30.214 12.67 47.431 13.319-28.264-18.843-46.781-51.005-46.781-87.391 0-19.492 5.197-37.36 14.294-52.954 51.655 63.675 129.3 105.258 216.365 109.807-1.624-7.797-2.599-15.918-2.599-24.04 0-57.828 46.782-104.934 104.934-104.934 30.213 0 57.502 12.67 76.67 33.137 23.715-4.548 46.456-13.32 66.599-25.34-7.798 24.366-24.366 44.833-46.132 57.827 21.117-2.273 41.584-8.122 60.426-16.243-14.292 20.791-32.161 39.308-52.628 54.253z"/></symbol><symbol id="flatpaper-icon-lucide-mail" viewBox="0 0 24 24" fill="none" stroke="currentColor" stroke-width="1.8" stroke-linecap="round" stroke-linejoin="round"><path d="m22 7-8.991 5.727a2 2 0 0 1-2.009 0L2 7"/><rect x="2" y="4" width="20" height="16" rx="2"/></symbol><symbol id="flatpaper-icon-lucide-rss" viewBox="0 0 24 24" fill="none" stroke="currentColor" stroke-width="1.8" stroke-linecap="round" stroke-linejoin="round"><path d="M4 11a9 9 0 0 1 9 9"/><path d="M4 4a16 16 0 0 1 16 16"/><circle cx="5" cy="19" r="1"/></symbol><symbol id="flatpaper-icon-lucide-atom" viewBox="0 0 24 24" fill="none" stroke="currentColor" stroke-width="1.8" stroke-linecap="round" stroke-linejoin="round"><circle cx="12" cy="12" r="1"/><path d="M20.2 20.2c2.04-2.03.02-7.36-4.5-11.9-4.54-4.52-9.87-6.54-11.9-4.5-2.04 2.03-.02 7.36 4.5 11.9 4.54 4.52 9.87 6.54 11.9 4.5Z"/><path d="M15.7 15.7c4.52-4.54 6.54-9.87 4.5-11.9-2.03-2.04-7.36-.02-11.9 4.5-4.52 4.54-6.54 9.87-4.5 11.9 2.03 2.04 7.36.02 11.9-4.5Z"/></symbol><symbol id="flatpaper-icon-lucide-heart" viewBox="0 0 24 24" fill="none" stroke="currentColor" stroke-width="1.8" stroke-linecap="round" stroke-linejoin="round"><path d="M2 9.5a5.5 5.5 0 0 1 9.591-3.676.56.56 0 0 0 .818 0A5.49 5.49 0 0 1 22 9.5c0 2.29-1.5 4-3 5.5l-5.492 5.313a2 2 0 0 1-3 .019L5 15c-1.5-1.5-3-3.2-3-5.5"/></symbol><symbol id="flatpaper-icon-lucide-message-circle" viewBox="0 0 24 24" fill="none" stroke="currentColor" stroke-width="1.8" stroke-linecap="round" stroke-linejoin="round"><path d="M2.992 16.342a2 2 0 0 1 .094 1.167l-1.065 3.29a1 1 0 0 0 1.236 1.168l3.413-.998a2 2 0 0 1 1.099.092 10 10 0 1 0-4.777-4.719"/></symbol><symbol id="flatpaper-icon-lucide-message-square" viewBox="0 0 24 24" fill="none" stroke="currentColor" stroke-width="1.8" stroke-linecap="round" stroke-linejoin="round"><path d="M22 17a2 2 0 0 1-2 2H6.828a2 2 0 0 0-1.414.586l-2.202 2.202A.71.71 0 0 1 2 21.286V5a2 2 0 0 1 2-2h16a2 2 0 0 1 2 2z"/></symbol><symbol id="flatpaper-icon-lucide-share-2" viewBox="0 0 24 24" fill="none" stroke="currentColor" stroke-width="1.8" stroke-linecap="round" stroke-linejoin="round"><circle cx="18" cy="5" r="3"/><circle cx="6" cy="12" r="3"/><circle cx="18" cy="19" r="3"/><line x1="8.59" x2="15.42" y1="13.51" y2="17.49"/><line x1="15.41" x2="8.59" y1="6.51" y2="10.49"/></symbol><symbol id="flatpaper-icon-lucide-calendar" viewBox="0 0 24 24" fill="none" stroke="currentColor" stroke-width="1.8" stroke-linecap="round" stroke-linejoin="round"><path d="M8 2v4"/><path d="M16 2v4"/><rect width="18" height="18" x="3" y="4" rx="2"/><path d="M3 10h18"/></symbol><symbol id="flatpaper-icon-lucide-clock" viewBox="0 0 24 24" fill="none" stroke="currentColor" stroke-width="1.8" stroke-linecap="round" stroke-linejoin="round"><circle cx="12" cy="12" r="10"/><path d="M12 6v6l4 2"/></symbol><symbol id="flatpaper-icon-lucide-shuffle" viewBox="0 0 24 24" fill="none" stroke="currentColor" stroke-width="1.8" stroke-linecap="round" stroke-linejoin="round"><path d="m18 14 4 4-4 4"/><path d="m18 2 4 4-4 4"/><path d="M2 18h1.973a4 4 0 0 0 3.3-1.7l5.454-8.6a4 4 0 0 1 3.3-1.7H22"/><path d="M2 6h1.972a4 4 0 0 1 3.6 2.2"/><path d="M22 18h-6.041a4 4 0 0 1-3.3-1.8l-.359-.45"/></symbol><symbol id="flatpaper-icon-lucide-flame" viewBox="0 0 24 24" fill="none" stroke="currentColor" stroke-width="1.8" stroke-linecap="round" stroke-linejoin="round"><path d="M12 3q1 4 4 6.5t3 5.5a1 1 0 0 1-14 0 5 5 0 0 1 1-3 1 1 0 0 0 5 0c0-2-1.5-3-1.5-5q0-2 2.5-4"/></symbol><symbol id="flatpaper-icon-lucide-history" viewBox="0 0 24 24" fill="none" stroke="currentColor" stroke-width="1.8" stroke-linecap="round" stroke-linejoin="round"><path d="M3 12a9 9 0 1 0 9-9 9.75 9.75 0 0 0-6.74 2.74L3 8"/><path d="M3 3v5h5"/><path d="M12 7v5l4 2"/></symbol><symbol id="flatpaper-icon-lucide-table-of-contents" viewBox="0 0 24 24" fill="none" stroke="currentColor" stroke-width="1.8" stroke-linecap="round" stroke-linejoin="round"><path d="M16 5H3"/><path d="M16 12H3"/><path d="M16 19H3"/><path d="M21 5h.01"/><path d="M21 12h.01"/><path d="M21 19h.01"/></symbol><symbol id="flatpaper-icon-lucide-list-tree" viewBox="0 0 24 24" fill="none" stroke="currentColor" stroke-width="1.8" stroke-linecap="round" stroke-linejoin="round"><path d="M8 5h13"/><path d="M13 12h8"/><path d="M13 19h8"/><path d="M3 10a2 2 0 0 0 2 2h3"/><path d="M3 5v12a2 2 0 0 0 2 2h3"/></symbol><symbol id="flatpaper-icon-lucide-folder" viewBox="0 0 24 24" fill="none" stroke="currentColor" stroke-width="1.8" stroke-linecap="round" stroke-linejoin="round"><path d="M20 20a2 2 0 0 0 2-2V8a2 2 0 0 0-2-2h-7.9a2 2 0 0 1-1.69-.9L9.6 3.9A2 2 0 0 0 7.93 3H4a2 2 0 0 0-2 2v13a2 2 0 0 0 2 2Z"/></symbol><symbol id="flatpaper-icon-lucide-tag" viewBox="0 0 24 24" fill="none" stroke="currentColor" stroke-width="1.8" stroke-linecap="round" stroke-linejoin="round"><path d="M12.586 2.586A2 2 0 0 0 11.172 2H4a2 2 0 0 0-2 2v7.172a2 2 0 0 0 .586 1.414l8.704 8.704a2.426 2.426 0 0 0 3.42 0l6.58-6.58a2.426 2.426 0 0 0 0-3.42z"/><circle cx="7.5" cy="7.5" r=".5" fill="currentColor"/></symbol><symbol id="flatpaper-icon-lucide-eye" viewBox="0 0 24 24" fill="none" stroke="currentColor" stroke-width="1.8" stroke-linecap="round" stroke-linejoin="round"><path d="M2.062 12.348a1 1 0 0 1 0-.696 10.75 10.75 0 0 1 19.876 0 1 1 0 0 1 0 .696 10.75 10.75 0 0 1-19.876 0"/><circle cx="12" cy="12" r="3"/></symbol><symbol id="flatpaper-icon-lucide-arrow-right" viewBox="0 0 24 24" fill="none" stroke="currentColor" stroke-width="1.8" stroke-linecap="round" stroke-linejoin="round"><path d="M5 12h14"/><path d="m12 5 7 7-7 7"/></symbol><symbol id="flatpaper-icon-lucide-arrow-left" viewBox="0 0 24 24" fill="none" stroke="currentColor" stroke-width="1.8" stroke-linecap="round" stroke-linejoin="round"><path d="m12 19-7-7 7-7"/><path d="M19 12H5"/></symbol><symbol id="flatpaper-icon-lucide-arrow-up" viewBox="0 0 24 24" fill="none" stroke="currentColor" stroke-width="1.8" stroke-linecap="round" stroke-linejoin="round"><path d="m5 12 7-7 7 7"/><path d="M12 19V5"/></symbol><symbol id="flatpaper-icon-lucide-chevron-right" viewBox="0 0 24 24" fill="none" stroke="currentColor" stroke-width="1.8" stroke-linecap="round" stroke-linejoin="round"><path d="m9 18 6-6-6-6"/></symbol><symbol id="flatpaper-icon-lucide-chevron-left" viewBox="0 0 24 24" fill="none" stroke="currentColor" stroke-width="1.8" stroke-linecap="round" stroke-linejoin="round"><path d="m15 18-6-6 6-6"/></symbol><symbol id="flatpaper-icon-lucide-chevron-down" viewBox="0 0 24 24" fill="none" stroke="currentColor" stroke-width="1.8" stroke-linecap="round" stroke-linejoin="round"><path d="m6 9 6 6 6-6"/></symbol><symbol id="flatpaper-icon-lucide-chevron-up" viewBox="0 0 24 24" fill="none" stroke="currentColor" stroke-width="1.8" stroke-linecap="round" stroke-linejoin="round"><path d="m18 15-6-6-6 6"/></symbol><symbol id="flatpaper-icon-lucide-send" viewBox="0 0 24 24" fill="none" stroke="currentColor" stroke-width="1.8" stroke-linecap="round" stroke-linejoin="round"><path d="M14.536 21.686a.5.5 0 0 0 .937-.024l6.5-19a.496.496 0 0 0-.635-.635l-19 6.5a.5.5 0 0 0-.024.937l7.93 3.18a2 2 0 0 1 1.112 1.11z"/><path d="m21.854 2.147-10.94 10.939"/></symbol><symbol id="flatpaper-icon-lucide-menu" viewBox="0 0 24 24" fill="none" stroke="currentColor" stroke-width="1.8" stroke-linecap="round" stroke-linejoin="round"><path d="M4 5h16"/><path d="M4 12h16"/><path d="M4 19h16"/></symbol><symbol id="flatpaper-icon-lucide-panel-left" viewBox="0 0 24 24" fill="none" stroke="currentColor" stroke-width="1.8" stroke-linecap="round" stroke-linejoin="round"><rect width="18" height="18" x="3" y="3" rx="2"/><path d="M9 3v18"/></symbol><symbol id="flatpaper-icon-lucide-leaf" viewBox="0 0 24 24" fill="none" stroke="currentColor" stroke-width="1.8" stroke-linecap="round" stroke-linejoin="round"><path d="M11 20A7 7 0 0 1 9.8 6.1C15.5 5 17 4.48 19 2c1 2 2 4.18 2 8 0 5.5-4.78 10-10 10Z"/><path d="M2 21c0-3 1.85-5.36 5.08-6C9.5 14.52 12 13 13 12"/></symbol><symbol id="flatpaper-icon-lucide-aperture" viewBox="0 0 24 24" fill="none" stroke="currentColor" stroke-width="1.8" stroke-linecap="round" stroke-linejoin="round"><circle cx="12" cy="12" r="10"/><path d="m14.31 8 5.74 9.94"/><path d="M9.69 8h11.48"/><path d="m7.38 12 5.74-9.94"/><path d="M9.69 16 3.95 6.06"/><path d="M14.31 16H2.83"/><path d="m16.62 12-5.74 9.94"/></symbol><symbol id="flatpaper-icon-lucide-compass" viewBox="0 0 24 24" fill="none" stroke="currentColor" stroke-width="1.8" stroke-linecap="round" stroke-linejoin="round"><circle cx="12" cy="12" r="10"/><path d="m16.24 7.76-1.804 5.411a2 2 0 0 1-1.265 1.265L7.76 16.24l1.804-5.411a2 2 0 0 1 1.265-1.265z"/></symbol><symbol id="flatpaper-icon-lucide-users" viewBox="0 0 24 24" fill="none" stroke="currentColor" stroke-width="1.8" stroke-linecap="round" stroke-linejoin="round"><path d="M16 21v-2a4 4 0 0 0-4-4H6a4 4 0 0 0-4 4v2"/><path d="M16 3.128a4 4 0 0 1 0 7.744"/><path d="M22 21v-2a4 4 0 0 0-3-3.87"/><circle cx="9" cy="7" r="4"/></symbol><symbol id="flatpaper-icon-lucide-radio" viewBox="0 0 24 24" fill="none" stroke="currentColor" stroke-width="1.8" stroke-linecap="round" stroke-linejoin="round"><path d="M16.247 7.761a6 6 0 0 1 0 8.478"/><path d="M19.075 4.933a10 10 0 0 1 0 14.134"/><path d="M4.925 19.067a10 10 0 0 1 0-14.134"/><path d="M7.753 16.239a6 6 0 0 1 0-8.478"/><circle cx="12" cy="12" r="2"/></symbol><symbol id="flatpaper-icon-lucide-hash" viewBox="0 0 24 24" fill="none" stroke="currentColor" stroke-width="1.8" stroke-linecap="round" stroke-linejoin="round"><line x1="4" x2="20" y1="9" y2="9"/><line x1="4" x2="20" y1="15" y2="15"/><line x1="10" x2="8" y1="3" y2="21"/><line x1="16" x2="14" y1="3" y2="21"/></symbol><symbol id="flatpaper-icon-lucide-gift" viewBox="0 0 24 24" fill="none" stroke="currentColor" stroke-width="1.8" stroke-linecap="round" stroke-linejoin="round"><path d="M12 7v14"/><path d="M20 11v8a2 2 0 0 1-2 2H6a2 2 0 0 1-2-2v-8"/><path d="M7.5 7a1 1 0 0 1 0-5A4.8 8 0 0 1 12 7a4.8 8 0 0 1 4.5-5 1 1 0 0 1 0 5"/><rect x="3" y="7" width="18" height="4" rx="1"/></symbol><symbol id="flatpaper-icon-lucide-pin" viewBox="0 0 24 24" fill="none" stroke="currentColor" stroke-width="1.8" stroke-linecap="round" stroke-linejoin="round"><path d="M12 17v5"/><path d="M9 10.76a2 2 0 0 1-1.11 1.79l-1.78.9A2 2 0 0 0 5 15.24V16a1 1 0 0 0 1 1h12a1 1 0 0 0 1-1v-.76a2 2 0 0 0-1.11-1.79l-1.78-.9A2 2 0 0 1 15 10.76V7a1 1 0 0 1 1-1 2 2 0 0 0 0-4H8a2 2 0 0 0 0 4 1 1 0 0 1 1 1z"/></symbol><symbol id="flatpaper-icon-lucide-album" viewBox="0 0 24 24" fill="none" stroke="currentColor" stroke-width="1.8" stroke-linecap="round" stroke-linejoin="round"><rect width="18" height="18" x="3" y="3" rx="2" ry="2"/><polyline points="11 3 11 11 14 8 17 11 17 3"/></symbol><symbol id="flatpaper-icon-lucide-image" viewBox="0 0 24 24" fill="none" stroke="currentColor" stroke-width="1.8" stroke-linecap="round" stroke-linejoin="round"><rect width="18" height="18" x="3" y="3" rx="2" ry="2"/><circle cx="9" cy="9" r="2"/><path d="m21 15-3.086-3.086a2 2 0 0 0-2.828 0L6 21"/></symbol><symbol id="flatpaper-icon-lucide-images" viewBox="0 0 24 24" fill="none" stroke="currentColor" stroke-width="1.8" stroke-linecap="round" stroke-linejoin="round"><path d="m22 11-1.296-1.296a2.4 2.4 0 0 0-3.408 0L11 16"/><path d="M4 8a2 2 0 0 0-2 2v10a2 2 0 0 0 2 2h10a2 2 0 0 0 2-2"/><circle cx="13" cy="7" r="1" fill="currentColor"/><rect x="8" y="2" width="14" height="14" rx="2"/></symbol><symbol id="flatpaper-icon-lucide-camera" viewBox="0 0 24 24" fill="none" stroke="currentColor" stroke-width="1.8" stroke-linecap="round" stroke-linejoin="round"><path d="M13.997 4a2 2 0 0 1 1.76 1.05l.486.9A2 2 0 0 0 18.003 7H20a2 2 0 0 1 2 2v9a2 2 0 0 1-2 2H4a2 2 0 0 1-2-2V9a2 2 0 0 1 2-2h1.997a2 2 0 0 0 1.759-1.048l.489-.904A2 2 0 0 1 10.004 4z"/><circle cx="12" cy="13" r="3"/></symbol><symbol id="flatpaper-icon-fa-brands-alipay" viewBox="0 0 448 512" fill="currentColor"><path d="M377.74 32H70.26C31.41 32 0 63.41 0 102.26v307.48C0 448.59 31.41 480 70.26 480h307.48c38.52 0 69.76-31.08 70.26-69.6-45.96-25.62-110.59-60.34-171.6-88.44-32.07 43.97-84.14 81-148.62 81-70.59 0-93.73-45.3-97.04-76.37-3.97-39.01 14.88-81.5 99.52-81.5 35.38 0 79.35 10.25 127.13 24.96 16.53-30.09 26.45-60.34 26.45-60.34h-178.2v-16.7h92.08v-31.24H88.28v-19.01h109.44V92.34h50.92v50.42h109.44v19.01H248.63v31.24h88.77s-15.21 46.62-38.35 90.92c48.93 16.7 100.01 36.04 148.62 52.74V102.26C447.83 63.57 416.43 32 377.74 32zM47.28 322.95c.99 20.17 10.25 53.73 69.93 53.73 52.07 0 92.58-39.68 117.87-72.9-44.63-18.68-84.48-31.41-109.44-31.41-67.45 0-79.35 33.06-78.36 50.58z"/></symbol><symbol id="flatpaper-icon-fa-brands-weixin" viewBox="0 0 576 512" fill="currentColor"><path d="M385.2 167.6c6.4 0 12.6.3 18.8 1.1C387.4 90.3 303.3 32 207.7 32 100.5 32 13 104.8 13 197.4c0 53.4 29.3 97.5 77.9 131.6l-19.3 58.6 68-34.1c24.4 4.8 43.8 9.7 68.2 9.7 6.2 0 12.1-.3 18.3-.8-4-12.9-6.2-26.6-6.2-40.8-.1-84.9 72.9-154 165.3-154zm-104.5-52.9c14.5 0 24.2 9.7 24.2 24.4 0 14.5-9.7 24.2-24.2 24.2-14.8 0-29.3-9.7-29.3-24.2.1-14.7 14.6-24.4 29.3-24.4zm-136.4 48.6c-14.5 0-29.3-9.7-29.3-24.2 0-14.8 14.8-24.4 29.3-24.4 14.8 0 24.4 9.7 24.4 24.4 0 14.6-9.6 24.2-24.4 24.2zM563 319.4c0-77.9-77.9-141.3-165.4-141.3-92.7 0-165.4 63.4-165.4 141.3S305 460.7 397.6 460.7c19.3 0 38.9-5.1 58.6-9.9l53.4 29.3-14.8-48.6C534 402.1 563 363.2 563 319.4zm-219.1-24.5c-9.7 0-19.3-9.7-19.3-19.6 0-9.7 9.7-19.3 19.3-19.3 14.8 0 24.4 9.7 24.4 19.3 0 10-9.7 19.6-24.4 19.6zm107.1 0c-9.7 0-19.3-9.7-19.3-19.6 0-9.7 9.7-19.3 19.3-19.3 14.5 0 24.4 9.7 24.4 19.3.1 10-9.9 19.6-24.4 19.6z"/></symbol><symbol id="flatpaper-icon-fa-brands-paypal" viewBox="0 0 384 512" fill="currentColor"><path d="M111.4 295.9c-3.5 19.2-17.4 108.7-21.5 134-.3 1.8-1 2.5-3 2.5H12.3c-7.6 0-13.1-6.6-12.1-13.9L58.8 46.6c1.5-9.6 10.1-16.9 20-16.9 152.3 0 165.1-3.7 204 11.4 60.1 23.3 65.6 79.5 44 140.3-21.5 62.6-72.5 89.5-140.1 90.3-43.4.7-69.5-7-75.3 24.2zM357.1 152c-1.8-1.3-2.5-1.8-3 1.3-2 11.4-5.1 22.5-8.8 33.6-39.9 113.8-150.5 103.9-204.5 103.9-6.1 0-10.1 3.3-10.9 9.4-22.6 140.4-27.1 169.7-27.1 169.7-1 7.1 3.5 12.9 10.6 12.9h63.5c8.6 0 15.7-6.3 17.4-14.9.7-5.4-1.1 6.1 14.4-91.3 4.6-22 14.3-19.7 29.3-19.7 71 0 126.4-28.8 142.9-112.3 6.5-34.8 4.6-71.4-23.8-92.6z"/></symbol><symbol id="flatpaper-icon-fa-brands-x-twitter" viewBox="0 0 512 512" fill="currentColor"><path d="M389.2 48h70.6L305.6 224.2 487 464H345L233.7 318.6 106.5 464H35.8L200.7 275.5 26.8 48H172.4L272.9 180.9 389.2 48zM364.4 421.8h39.1L151.1 88h-42L364.4 421.8z"/></symbol><symbol id="flatpaper-icon-fa-brands-steam" viewBox="0 0 496 512" fill="currentColor"><path d="M496 256c0 137-111.2 248-248.4 248-113.8 0-209.6-76.3-239-180.4l95.2 39.3c6.4 32.1 34.9 56.4 68.9 56.4 39.2 0 71.9-32.4 70.2-73.5l84.5-60.2c52.1 1.3 95.8-40.9 95.8-93.5 0-51.6-42-93.5-93.7-93.5s-93.7 42-93.7 93.5v1.2L176.6 279c-15.5-.9-30.7 3.4-43.5 12.1L0 236.1C10.2 108.4 117.1 8 247.6 8 384.8 8 496 119 496 256zM155.7 384.3l-30.5-12.6a52.79 52.79 0 0 0 27.2 25.8c26.9 11.2 57.8-1.6 69-28.4 5.4-13 5.5-27.3.1-40.3-5.4-13-15.5-23.2-28.5-28.6-12.9-5.4-26.7-5.2-38.9-.6l31.5 13c19.8 8.2 29.2 30.9 20.9 50.7-8.3 19.9-31 29.2-50.8 21zm173.8-129.9c-34.4 0-62.4-28-62.4-62.3s28-62.3 62.4-62.3 62.4 28 62.4 62.3-27.9 62.3-62.4 62.3zm.1-15.6c25.9 0 46.9-21 46.9-46.8 0-25.9-21-46.8-46.9-46.8s-46.9 21-46.9 46.8c.1 25.8 21.1 46.8 46.9 46.8z"/></symbol><symbol id="flatpaper-icon-fa-brands-bilibili" viewBox="0 0 512 512" fill="currentColor"><path d="M488.6 104.1C505.3 122.2 513 143.8 511.9 169.8V372.2C511.5 398.6 502.7 420.3 485.4 437.3C468.2 454.3 446.3 463.2 419.9 464H92.02C65.57 463.2 43.81 454.2 26.74 436.8C9.682 419.4 .7667 396.5 0 368.2V169.8C.7667 143.8 9.682 122.2 26.74 104.1C43.81 87.75 65.57 78.77 92.02 78H121.4L96.05 52.19C90.3 46.46 87.42 39.19 87.42 30.4C87.42 21.6 90.3 14.34 96.05 8.603C101.8 2.868 109.1 0 117.9 0C126.7 0 134 2.868 139.8 8.603L213.1 78H301.1L375.6 8.603C381.7 2.868 389.2 0 398 0C406.8 0 414.1 2.868 419.9 8.603C425.6 14.34 428.5 21.6 428.5 30.4C428.5 39.19 425.6 46.46 419.9 52.19L394.6 78L423.9 78C450.3 78.77 471.9 87.75 488.6 104.1H488.6zM449.8 173.8C449.4 164.2 446.1 156.4 439.1 150.3C433.9 144.2 425.1 140.9 416.4 140.5H96.05C86.46 140.9 78.6 144.2 72.47 150.3C66.33 156.4 63.07 164.2 62.69 173.8V368.2C62.69 377.4 65.95 385.2 72.47 391.7C78.99 398.2 86.85 401.5 96.05 401.5H416.4C425.6 401.5 433.4 398.2 439.7 391.7C446 385.2 449.4 377.4 449.8 368.2L449.8 173.8zM185.5 216.5C191.8 222.8 195.2 230.6 195.6 239.7V273C195.2 282.2 191.9 289.9 185.8 296.2C179.6 302.5 171.8 305.7 162.2 305.7C152.6 305.7 144.7 302.5 138.6 296.2C132.5 289.9 129.2 282.2 128.8 273V239.7C129.2 230.6 132.6 222.8 138.9 216.5C145.2 210.2 152.1 206.9 162.2 206.5C171.4 206.9 179.2 210.2 185.5 216.5H185.5zM377 216.5C383.3 222.8 386.7 230.6 387.1 239.7V273C386.7 282.2 383.4 289.9 377.3 296.2C371.2 302.5 363.3 305.7 353.7 305.7C344.1 305.7 336.3 302.5 330.1 296.2C323.1 289.9 320.7 282.2 320.4 273V239.7C320.7 230.6 324.1 222.8 330.4 216.5C336.7 210.2 344.5 206.9 353.7 206.5C362.9 206.9 370.7 210.2 377 216.5H377z"/></symbol><symbol id="flatpaper-icon-fa-brands-youtube" viewBox="0 0 576 512" fill="currentColor"><path d="M549.655 124.083c-6.281-23.65-24.787-42.276-48.284-48.597C458.781 64 288 64 288 64S117.22 64 74.629 75.486c-23.497 6.322-42.003 24.947-48.284 48.597-11.412 42.867-11.412 132.305-11.412 132.305s0 89.438 11.412 132.305c6.281 23.65 24.787 41.5 48.284 47.821C117.22 448 288 448 288 448s170.78 0 213.371-11.486c23.497-6.321 42.003-24.171 48.284-47.821 11.412-42.867 11.412-132.305 11.412-132.305s0-89.438-11.412-132.305zm-317.51 213.508V175.185l142.739 81.205-142.739 81.201z"/></symbol><symbol id="flatpaper-icon-fa-brands-facebook" viewBox="0 0 512 512" fill="currentColor"><path d="M512 256C512 114.6 397.4 0 256 0S0 114.6 0 256C0 376 82.7 476.8 194.2 504.5V334.2H141.4V256h52.8V222.3c0-87.1 39.4-127.5 125-127.5c16.2 0 44.2 3.2 55.7 6.4V172c-6-.6-16.5-1-29.6-1c-42 0-58.2 15.9-58.2 57.2V256h83.6l-14.4 78.2H287V510.1C413.8 494.8 512 386.9 512 256h0z"/></symbol><symbol id="flatpaper-icon-fa-brands-instagram" viewBox="0 0 448 512" fill="currentColor"><path d="M224.1 141c-63.6 0-114.9 51.3-114.9 114.9s51.3 114.9 114.9 114.9S339 319.5 339 255.9 287.7 141 224.1 141zm0 189.6c-41.1 0-74.7-33.5-74.7-74.7s33.5-74.7 74.7-74.7 74.7 33.5 74.7 74.7-33.6 74.7-74.7 74.7zm146.4-194.3c0 14.9-12 26.8-26.8 26.8-14.9 0-26.8-12-26.8-26.8s12-26.8 26.8-26.8 26.8 12 26.8 26.8zm76.1 27.2c-1.7-35.9-9.9-67.7-36.2-93.9-26.2-26.2-58-34.4-93.9-36.2-37-2.1-147.9-2.1-184.9 0-35.8 1.7-67.6 9.9-93.9 36.1s-34.4 58-36.2 93.9c-2.1 37-2.1 147.9 0 184.9 1.7 35.9 9.9 67.7 36.2 93.9s58 34.4 93.9 36.2c37 2.1 147.9 2.1 184.9 0 35.9-1.7 67.7-9.9 93.9-36.2 26.2-26.2 34.4-58 36.2-93.9 2.1-37 2.1-147.8 0-184.8zM398.8 388c-7.8 19.6-22.9 34.7-42.6 42.6-29.5 11.7-99.5 9-132.1 9s-102.7 2.6-132.1-9c-19.6-7.8-34.7-22.9-42.6-42.6-11.7-29.5-9-99.5-9-132.1s-2.6-102.7 9-132.1c7.8-19.6 22.9-34.7 42.6-42.6 29.5-11.7 99.5-9 132.1-9s102.7-2.6 132.1 9c19.6 7.8 34.7 22.9 42.6 42.6 11.7 29.5 9 99.5 9 132.1s2.7 102.7-9 132.1z"/></symbol><symbol id="flatpaper-icon-fa-brands-telegram" viewBox="0 0 496 512" fill="currentColor"><path d="M248,8C111.033,8,0,119.033,0,256S111.033,504,248,504,496,392.967,496,256,384.967,8,248,8ZM362.952,176.66c-3.732,39.215-19.881,134.378-28.1,178.3-3.476,18.584-10.322,24.816-16.948,25.425-14.4,1.326-25.338-9.517-39.287-18.661-21.827-14.308-34.158-23.215-55.346-37.177-24.485-16.135-8.612-25,5.342-39.5,3.652-3.793,67.107-61.51,68.335-66.746.153-.655.3-3.1-1.154-4.384s-3.59-.849-5.135-.5q-3.283.746-104.608,69.142-14.845,10.194-26.894,9.934c-8.855-.191-25.888-5.006-38.551-9.123-15.531-5.048-27.875-7.717-26.8-16.291q.84-6.7,18.45-13.7,108.446-47.248,144.628-62.3c68.872-28.647,83.183-33.623,92.511-33.789,2.052-.034,6.639.474,9.61,2.885a10.452,10.452,0,0,1,3.53,6.716A43.765,43.765,0,0,1,362.952,176.66Z"/></symbol><symbol id="flatpaper-icon-fa-brands-weibo" viewBox="0 0 512 512" fill="currentColor"><path d="M407 177.6c7.6-24-13.4-46.8-37.4-41.7-22 4.8-28.8-28.1-7.1-32.8 50.1-10.9 92.3 37.1 76.5 84.8-6.8 21.2-38.8 10.8-32-10.3zM214.8 446.7C108.5 446.7 0 395.3 0 310.4c0-44.3 28-95.4 76.3-143.7C176 67 279.5 65.8 249.9 161c-4 13.1 12.3 5.7 12.3 6 79.5-33.6 140.5-16.8 114 51.4-3.7 9.4 1.1 10.9 8.3 13.1 135.7 42.3 34.8 215.2-169.7 215.2zm143.7-146.3c-5.4-55.7-78.5-94-163.4-85.7-84.8 8.6-148.8 60.3-143.4 116s78.5 94 163.4 85.7c84.8-8.6 148.8-60.3 143.4-116zM347.9 35.1c-25.9 5.6-16.8 43.7 8.3 38.3 72.3-15.2 134.8 52.8 111.7 124-7.4 24.2 29.1 37 37.4 12 31.9-99.8-55.1-195.9-157.4-174.3zm-78.5 311c-17.1 38.8-66.8 60-109.1 46.3-40.8-13.1-58-53.4-40.3-89.7 17.7-35.4 63.1-55.4 103.4-45.1 42 10.8 63.1 50.2 46 88.5zm-86.3-30c-12.9-5.4-30 .3-38 12.9-8.3 12.9-4.3 28 8.6 34 13.1 6 30.8.3 39.1-12.9 8-13.1 3.7-28.3-9.7-34zm32.6-13.4c-5.1-1.7-11.4.6-14.3 5.4-2.9 5.1-1.4 10.6 3.7 12.9 5.1 2 11.7-.3 14.6-5.4 2.8-5.2 1.1-10.9-4-12.9z"/></symbol><symbol id="flatpaper-icon-lucide-wrench" viewBox="0 0 24 24" fill="none" stroke="currentColor" stroke-width="1.8" stroke-linecap="round" stroke-linejoin="round"><path d="M14.7 6.3a1 1 0 0 0 0 1.4l1.6 1.6a1 1 0 0 0 1.4 0l3.106-3.105c.32-.322.863-.22.983.218a6 6 0 0 1-8.259 7.057l-7.91 7.91a1 1 0 0 1-2.999-3l7.91-7.91a6 6 0 0 1 7.057-8.259c.438.12.54.662.219.984z"/></symbol><symbol id="flatpaper-icon-lucide-book" viewBox="0 0 24 24" fill="none" stroke="currentColor" stroke-width="1.8" stroke-linecap="round" stroke-linejoin="round"><path d="M4 19.5v-15A2.5 2.5 0 0 1 6.5 2H19a1 1 0 0 1 1 1v18a1 1 0 0 1-1 1H6.5a1 1 0 0 1 0-5H20"/></symbol><symbol id="flatpaper-icon-fa-solid-lightbulb" viewBox="0 0 384 512" fill="currentColor"><path d="M272 384c9.6-31.9 29.5-59.1 49.2-86.2c0 0 0 0 0 0c5.2-7.1 10.4-14.2 15.4-21.4c19.8-28.5 31.4-63 31.4-100.3C368 78.8 289.2 0 192 0S16 78.8 16 176c0 37.3 11.6 71.9 31.4 100.3c5 7.2 10.2 14.3 15.4 21.4c0 0 0 0 0 0c19.8 27.1 39.7 54.4 49.2 86.2l160 0zM192 512c44.2 0 80-35.8 80-80l0-16-160 0 0 16c0 44.2 35.8 80 80 80zM112 176c0 8.8-7.2 16-16 16s-16-7.2-16-16c0-61.9 50.1-112 112-112c8.8 0 16 7.2 16 16s-7.2 16-16 16c-44.2 0-80 35.8-80 80z"/></symbol><symbol id="flatpaper-icon-fa-solid-clipboard" viewBox="0 0 384 512" fill="currentColor"><path d="M192 0c-41.8 0-77.4 26.7-90.5 64L64 64C28.7 64 0 92.7 0 128L0 448c0 35.3 28.7 64 64 64l256 0c35.3 0 64-28.7 64-64l0-320c0-35.3-28.7-64-64-64l-37.5 0C269.4 26.7 233.8 0 192 0zm0 64a32 32 0 1 1 0 64 32 32 0 1 1 0-64zM112 192l160 0c8.8 0 16 7.2 16 16s-7.2 16-16 16l-160 0c-8.8 0-16-7.2-16-16s7.2-16 16-16z"/></symbol><symbol id="flatpaper-icon-fa-solid-cloud" viewBox="0 0 640 512" fill="currentColor"><path d="M0 336c0 79.5 64.5 144 144 144l368 0c70.7 0 128-57.3 128-128c0-61.9-44-113.6-102.4-125.4c4.1-10.7 6.4-22.4 6.4-34.6c0-53-43-96-96-96c-19.7 0-38.1 6-53.3 16.2C367 64.2 315.3 32 256 32C167.6 32 96 103.6 96 192c0 2.7 .1 5.4 .2 8.1C40.2 219.8 0 273.2 0 336z"/></symbol><symbol id="flatpaper-icon-fa-solid-file-export" viewBox="0 0 576 512" fill="currentColor"><path d="M0 64C0 28.7 28.7 0 64 0L224 0l0 128c0 17.7 14.3 32 32 32l128 0 0 128-168 0c-13.3 0-24 10.7-24 24s10.7 24 24 24l168 0 0 112c0 35.3-28.7 64-64 64L64 512c-35.3 0-64-28.7-64-64L0 64zM384 336l0-48 110.1 0-39-39c-9.4-9.4-9.4-24.6 0-33.9s24.6-9.4 33.9 0l80 80c9.4 9.4 9.4 24.6 0 33.9l-80 80c-9.4 9.4-24.6 9.4-33.9 0s-9.4-24.6 0-33.9l39-39L384 336zm0-208l-128 0L256 0 384 128z"/></symbol><symbol id="flatpaper-icon-fa-solid-image" viewBox="0 0 512 512" fill="currentColor"><path d="M0 96C0 60.7 28.7 32 64 32l384 0c35.3 0 64 28.7 64 64l0 320c0 35.3-28.7 64-64 64L64 480c-35.3 0-64-28.7-64-64L0 96zM323.8 202.5c-4.5-6.6-11.9-10.5-19.8-10.5s-15.4 3.9-19.8 10.5l-87 127.6L170.7 297c-4.6-5.7-11.5-9-18.7-9s-14.2 3.3-18.7 9l-64 80c-5.8 7.2-6.9 17.1-2.9 25.4s12.4 13.6 21.6 13.6l96 0 32 0 208 0c8.9 0 17.1-4.9 21.2-12.8s3.6-17.4-1.4-24.7l-120-176zM112 192a48 48 0 1 0 0-96 48 48 0 1 0 0 96z"/></symbol><symbol id="flatpaper-icon-fa-solid-upload" viewBox="0 0 512 512" fill="currentColor"><path d="M288 109.3L288 352c0 17.7-14.3 32-32 32s-32-14.3-32-32l0-242.7-73.4 73.4c-12.5 12.5-32.8 12.5-45.3 0s-12.5-32.8 0-45.3l128-128c12.5-12.5 32.8-12.5 45.3 0l128 128c12.5 12.5 12.5 32.8 0 45.3s-32.8 12.5-45.3 0L288 109.3zM64 352l128 0c0 35.3 28.7 64 64 64s64-28.7 64-64l128 0c35.3 0 64 28.7 64 64l0 32c0 35.3-28.7 64-64 64L64 512c-35.3 0-64-28.7-64-64l0-32c0-35.3 28.7-64 64-64zM432 456a24 24 0 1 0 0-48 24 24 0 1 0 0 48z"/></symbol><symbol id="flatpaper-icon-fa-solid-video" viewBox="0 0 576 512" fill="currentColor"><path d="M0 128C0 92.7 28.7 64 64 64l256 0c35.3 0 64 28.7 64 64l0 256c0 35.3-28.7 64-64 64L64 448c-35.3 0-64-28.7-64-64L0 128zM559.1 99.8c10.4 5.6 16.9 16.4 16.9 28.2l0 256c0 11.8-6.5 22.6-16.9 28.2s-23 5-32.9-1.6l-96-64L416 337.1l0-17.1 0-128 0-17.1 14.2-9.5 96-64c9.8-6.5 22.4-7.2 32.9-1.6z"/></symbol><symbol id="flatpaper-icon-fa-solid-compress" viewBox="0 0 448 512" fill="currentColor"><path d="M160 64c0-17.7-14.3-32-32-32s-32 14.3-32 32l0 64-64 0c-17.7 0-32 14.3-32 32s14.3 32 32 32l96 0c17.7 0 32-14.3 32-32l0-96zM32 320c-17.7 0-32 14.3-32 32s14.3 32 32 32l64 0 0 64c0 17.7 14.3 32 32 32s32-14.3 32-32l0-96c0-17.7-14.3-32-32-32l-96 0zM352 64c0-17.7-14.3-32-32-32s-32 14.3-32 32l0 96c0 17.7 14.3 32 32 32l96 0c17.7 0 32-14.3 32-32s-14.3-32-32-32l-64 0 0-64zM320 320c-17.7 0-32 14.3-32 32l0 96c0 17.7 14.3 32 32 32s32-14.3 32-32l0-64 64 0c17.7 0 32-14.3 32-32s-14.3-32-32-32l-96 0z"/></symbol><symbol id="flatpaper-icon-fa-solid-images" viewBox="0 0 576 512" fill="currentColor"><path d="M160 32c-35.3 0-64 28.7-64 64l0 224c0 35.3 28.7 64 64 64l352 0c35.3 0 64-28.7 64-64l0-224c0-35.3-28.7-64-64-64L160 32zM396 138.7l96 144c4.9 7.4 5.4 16.8 1.2 24.6S480.9 320 472 320l-144 0-48 0-80 0c-9.2 0-17.6-5.3-21.6-13.6s-2.9-18.2 2.9-25.4l64-80c4.6-5.7 11.4-9 18.7-9s14.2 3.3 18.7 9l17.3 21.6 56-84C360.5 132 368 128 376 128s15.5 4 20 10.7zM192 128a32 32 0 1 1 64 0 32 32 0 1 1 -64 0zM48 120c0-13.3-10.7-24-24-24S0 106.7 0 120L0 344c0 75.1 60.9 136 136 136l320 0c13.3 0 24-10.7 24-24s-10.7-24-24-24l-320 0c-48.6 0-88-39.4-88-88l0-224z"/></symbol><symbol id="flatpaper-icon-fa-solid-window-maximize" viewBox="0 0 512 512" fill="currentColor"><path d="M64 32C28.7 32 0 60.7 0 96L0 416c0 35.3 28.7 64 64 64l384 0c35.3 0 64-28.7 64-64l0-320c0-35.3-28.7-64-64-64L64 32zM96 96l320 0c17.7 0 32 14.3 32 32s-14.3 32-32 32L96 160c-17.7 0-32-14.3-32-32s14.3-32 32-32z"/></symbol><symbol id="flatpaper-icon-fa-solid-code" viewBox="0 0 640 512" fill="currentColor"><path d="M392.8 1.2c-17-4.9-34.7 5-39.6 22l-128 448c-4.9 17 5 34.7 22 39.6s34.7-5 39.6-22l128-448c4.9-17-5-34.7-22-39.6zm80.6 120.1c-12.5 12.5-12.5 32.8 0 45.3L562.7 256l-89.4 89.4c-12.5 12.5-12.5 32.8 0 45.3s32.8 12.5 45.3 0l112-112c12.5-12.5 12.5-32.8 0-45.3l-112-112c-12.5-12.5-32.8-12.5-45.3 0zm-306.7 0c-12.5-12.5-32.8-12.5-45.3 0l-112 112c-12.5 12.5-12.5 32.8 0 45.3l112 112c12.5 12.5 32.8 12.5 45.3 0s12.5-32.8 0-45.3L77.3 256l89.4-89.4c12.5-12.5 12.5-32.8 0-45.3z"/></symbol><symbol id="flatpaper-icon-fa-solid-globe" viewBox="0 0 512 512" fill="currentColor"><path d="M352 256c0 22.2-1.2 43.6-3.3 64l-185.3 0c-2.2-20.4-3.3-41.8-3.3-64s1.2-43.6 3.3-64l185.3 0c2.2 20.4 3.3 41.8 3.3 64zm28.8-64l123.1 0c5.3 20.5 8.1 41.9 8.1 64s-2.8 43.5-8.1 64l-123.1 0c2.1-20.6 3.2-42 3.2-64s-1.1-43.4-3.2-64zm112.6-32l-116.7 0c-10-63.9-29.8-117.4-55.3-151.6c78.3 20.7 142 77.5 171.9 151.6zm-149.1 0l-176.6 0c6.1-36.4 15.5-68.6 27-94.7c10.5-23.6 22.2-40.7 33.5-51.5C239.4 3.2 248.7 0 256 0s16.6 3.2 27.8 13.8c11.3 10.8 23 27.9 33.5 51.5c11.6 26 20.9 58.2 27 94.7zm-209 0L18.6 160C48.6 85.9 112.2 29.1 190.6 8.4C165.1 42.6 145.3 96.1 135.3 160zM8.1 192l123.1 0c-2.1 20.6-3.2 42-3.2 64s1.1 43.4 3.2 64L8.1 320C2.8 299.5 0 278.1 0 256s2.8-43.5 8.1-64zM194.7 446.6c-11.6-26-20.9-58.2-27-94.6l176.6 0c-6.1 36.4-15.5 68.6-27 94.6c-10.5 23.6-22.2 40.7-33.5 51.5C272.6 508.8 263.3 512 256 512s-16.6-3.2-27.8-13.8c-11.3-10.8-23-27.9-33.5-51.5zM135.3 352c10 63.9 29.8 117.4 55.3 151.6C112.2 482.9 48.6 426.1 18.6 352l116.7 0zm358.1 0c-30 74.1-93.6 130.9-171.9 151.6c25.5-34.2 45.2-87.7 55.3-151.6l116.7 0z"/></symbol><symbol id="flatpaper-icon-fa-solid-spider" viewBox="0 0 512 512" fill="currentColor"><path d="M158.4 32.6c4.8-12.4-1.4-26.3-13.8-31s-26.3 1.4-31 13.8L81.1 100c-7.9 20.7-3 44.1 12.7 59.7l57.4 57.4L70.8 190.3c-2.4-.8-4.3-2.7-5.1-5.1L46.8 128.4C42.6 115.8 29 109 16.4 113.2S-3 131 1.2 143.6l18.9 56.8c5.6 16.7 18.7 29.8 35.4 35.4L116.1 256 55.6 276.2c-16.7 5.6-29.8 18.7-35.4 35.4L1.2 368.4C-3 381 3.8 394.6 16.4 398.8s26.2-2.6 30.4-15.2l18.9-56.8c.8-2.4 2.7-4.3 5.1-5.1l80.4-26.8L93.7 352.3C78.1 368 73.1 391.4 81.1 412l32.5 84.6c4.8 12.4 18.6 18.5 31 13.8s18.5-18.6 13.8-31l-32.5-84.6c-1.1-3-.4-6.3 1.8-8.5L160 353.9c1 52.1 43.6 94.1 96 94.1s95-41.9 96-94.1l32.3 32.3c2.2 2.2 2.9 5.6 1.8 8.5l-32.5 84.6c-4.8 12.4 1.4 26.3 13.8 31s26.3-1.4 31-13.8L430.9 412c7.9-20.7 3-44.1-12.7-59.7l-57.4-57.4 80.4 26.8c2.4 .8 4.3 2.7 5.1 5.1l18.9 56.8c4.2 12.6 17.8 19.4 30.4 15.2s19.4-17.8 15.2-30.4l-18.9-56.8c-5.6-16.7-18.7-29.8-35.4-35.4L395.9 256l60.5-20.2c16.7-5.6 29.8-18.7 35.4-35.4l18.9-56.8c4.2-12.6-2.6-26.2-15.2-30.4s-26.2 2.6-30.4 15.2l-18.9 56.8c-.8 2.4-2.7 4.3-5.1 5.1l-80.4 26.8 57.4-57.4c15.6-15.6 20.6-39 12.7-59.7L398.4 15.4C393.6 3 379.8-3.2 367.4 1.6s-18.5 18.6-13.8 31l32.5 84.6c1.1 3 .4 6.3-1.8 8.5L336 174.1l0-14.1c0-31.8-18.6-59.3-45.5-72.2c-9.1-4.4-18.5 3.3-18.5 13.4l0 10.8c0 8.8-7.2 16-16 16s-16-7.2-16-16l0-10.8c0-10.1-9.4-17.7-18.5-13.4C194.6 100.7 176 128.2 176 160l0 14.1-48.3-48.3c-2.2-2.2-2.9-5.6-1.8-8.5l32.5-84.6z"/></symbol><symbol id="flatpaper-icon-fa-brands-docker" viewBox="0 0 640 512" fill="currentColor"><path d="M349.9 236.3h-66.1v-59.4h66.1v59.4zm0-204.3h-66.1v60.7h66.1V32zm78.2 144.8H362v59.4h66.1v-59.4zm-156.3-72.1h-66.1v60.1h66.1v-60.1zm78.1 0h-66.1v60.1h66.1v-60.1zm276.8 100c-14.4-9.7-47.6-13.2-73.1-8.4-3.3-24-16.7-44.9-41.1-63.7l-14-9.3-9.3 14c-18.4 27.8-23.4 73.6-3.7 103.8-8.7 4.7-25.8 11.1-48.4 10.7H2.4c-8.7 50.8 5.8 116.8 44 162.1 37.1 43.9 92.7 66.2 165.4 66.2 157.4 0 273.9-72.5 328.4-204.2 21.4.4 67.6.1 91.3-45.2 1.5-2.5 6.6-13.2 8.5-17.1l-13.3-8.9zm-511.1-27.9h-66v59.4h66.1v-59.4zm78.1 0h-66.1v59.4h66.1v-59.4zm78.1 0h-66.1v59.4h66.1v-59.4zm-78.1-72.1h-66.1v60.1h66.1v-60.1z"/></symbol><symbol id="flatpaper-icon-fa-solid-beer-mug-empty" viewBox="0 0 512 512" fill="currentColor"><path d="M32 64c0-17.7 14.3-32 32-32l288 0c17.7 0 32 14.3 32 32l0 32 51.2 0c42.4 0 76.8 34.4 76.8 76.8l0 102.1c0 30.4-17.9 57.9-45.6 70.2L384 381.7l0 34.3c0 35.3-28.7 64-64 64L96 480c-35.3 0-64-28.7-64-64L32 64zM384 311.6l56.4-25.1c4.6-2.1 7.6-6.6 7.6-11.7l0-102.1c0-7.1-5.7-12.8-12.8-12.8L384 160l0 151.6zM160 144c0-8.8-7.2-16-16-16s-16 7.2-16 16l0 224c0 8.8 7.2 16 16 16s16-7.2 16-16l0-224zm64 0c0-8.8-7.2-16-16-16s-16 7.2-16 16l0 224c0 8.8 7.2 16 16 16s16-7.2 16-16l0-224zm64 0c0-8.8-7.2-16-16-16s-16 7.2-16 16l0 224c0 8.8 7.2 16 16 16s16-7.2 16-16l0-224z"/></symbol><symbol id="flatpaper-icon-fa-brands-java" viewBox="0 0 384 512" fill="currentColor"><path d="M277.74 312.9c9.8-6.7 23.4-12.5 23.4-12.5s-38.7 7-77.2 10.2c-47.1 3.9-97.7 4.7-123.1 1.3-60.1-8 33-30.1 33-30.1s-36.1-2.4-80.6 19c-52.5 25.4 130 37 224.5 12.1zm-85.4-32.1c-19-42.7-83.1-80.2 0-145.8C296 53.2 242.84 0 242.84 0c21.5 84.5-75.6 110.1-110.7 162.6-23.9 35.9 11.7 74.4 60.2 118.2zm114.6-176.2c.1 0-175.2 43.8-91.5 140.2 24.7 28.4-6.5 54-6.5 54s62.7-32.4 33.9-72.9c-26.9-37.8-47.5-56.6 64.1-121.3zm-6.1 270.5a12.19 12.19 0 0 1-2 2.6c128.3-33.7 81.1-118.9 19.8-97.3a17.33 17.33 0 0 0-8.2 6.3 70.45 70.45 0 0 1 11-3c31-6.5 75.5 41.5-20.6 91.4zM348 437.4s14.5 11.9-15.9 21.2c-57.9 17.5-240.8 22.8-291.6.7-18.3-7.9 16-19 26.8-21.3 11.2-2.4 17.7-2 17.7-2-20.3-14.3-131.3 28.1-56.4 40.2C232.84 509.4 401 461.3 348 437.4zM124.44 396c-78.7 22 47.9 67.4 148.1 24.5a185.89 185.89 0 0 1-28.2-13.8c-44.7 8.5-65.4 9.1-106 4.5-33.5-3.8-13.9-15.2-13.9-15.2zm179.8 97.2c-78.7 14.8-175.8 13.1-233.3 3.6 0-.1 11.8 9.7 72.4 13.6 92.2 5.9 233.8-3.3 237.1-46.9 0 0-6.4 16.5-76.2 29.7zM260.64 353c-59.2 11.4-93.5 11.1-136.8 6.6-33.5-3.5-11.6-19.7-11.6-19.7-86.8 28.8 48.2 61.4 169.5 25.9a60.37 60.37 0 0 1-21.1-12.8z"/></symbol><symbol id="flatpaper-icon-fa-brands-node-js" viewBox="0 0 448 512" fill="currentColor"><path d="M224 508c-6.7 0-13.5-1.8-19.4-5.2l-61.7-36.5c-9.2-5.2-4.7-7-1.7-8 12.3-4.3 14.8-5.2 27.9-12.7 1.4-.8 3.2-.5 4.6.4l47.4 28.1c1.7 1 4.1 1 5.7 0l184.7-106.6c1.7-1 2.8-3 2.8-5V149.3c0-2.1-1.1-4-2.9-5.1L226.8 37.7c-1.7-1-4-1-5.7 0L36.6 144.3c-1.8 1-2.9 3-2.9 5.1v213.1c0 2 1.1 4 2.9 4.9l50.6 29.2c27.5 13.7 44.3-2.4 44.3-18.7V167.5c0-3 2.4-5.3 5.4-5.3h23.4c2.9 0 5.4 2.3 5.4 5.3V378c0 36.6-20 57.6-54.7 57.6-10.7 0-19.1 0-42.5-11.6l-48.4-27.9C8.1 389.2.7 376.3.7 362.4V149.3c0-13.8 7.4-26.8 19.4-33.7L204.6 9c11.7-6.6 27.2-6.6 38.8 0l184.7 106.7c12 6.9 19.4 19.8 19.4 33.7v213.1c0 13.8-7.4 26.7-19.4 33.7L243.4 502.8c-5.9 3.4-12.6 5.2-19.4 5.2zm149.1-210.1c0-39.9-27-50.5-83.7-58-57.4-7.6-63.2-11.5-63.2-24.9 0-11.1 4.9-25.9 47.4-25.9 37.9 0 51.9 8.2 57.7 33.8.5 2.4 2.7 4.2 5.2 4.2h24c1.5 0 2.9-.6 3.9-1.7s1.5-2.6 1.4-4.1c-3.7-44.1-33-64.6-92.2-64.6-52.7 0-84.1 22.2-84.1 59.5 0 40.4 31.3 51.6 81.8 56.6 60.5 5.9 65.2 14.8 65.2 26.7 0 20.6-16.6 29.4-55.5 29.4-48.9 0-59.6-12.3-63.2-36.6-.4-2.6-2.6-4.5-5.3-4.5h-23.9c-3 0-5.3 2.4-5.3 5.3 0 31.1 16.9 68.2 97.8 68.2 58.4-.1 92-23.2 92-63.4z"/></symbol><symbol id="flatpaper-icon-fa-brands-python" viewBox="0 0 448 512" fill="currentColor"><path d="M439.8 200.5c-7.7-30.9-22.3-54.2-53.4-54.2h-40.1v47.4c0 36.8-31.2 67.8-66.8 67.8H172.7c-29.2 0-53.4 25-53.4 54.3v101.8c0 29 25.2 46 53.4 54.3 33.8 9.9 66.3 11.7 106.8 0 26.9-7.8 53.4-23.5 53.4-54.3v-40.7H226.2v-13.6h160.2c31.1 0 42.6-21.7 53.4-54.2 11.2-33.5 10.7-65.7 0-108.6zM286.2 404c11.1 0 20.1 9.1 20.1 20.3 0 11.3-9 20.4-20.1 20.4-11 0-20.1-9.2-20.1-20.4.1-11.3 9.1-20.3 20.1-20.3zM167.8 248.1h106.8c29.7 0 53.4-24.5 53.4-54.3V91.9c0-29-24.4-50.7-53.4-55.6-35.8-5.9-74.7-5.6-106.8.1-45.2 8-53.4 24.7-53.4 55.6v40.7h106.9v13.6h-147c-31.1 0-58.3 18.7-66.8 54.2-9.8 40.7-10.2 66.1 0 108.6 7.6 31.6 25.7 54.2 56.8 54.2H101v-48.8c0-35.3 30.5-66.4 66.8-66.4zm-6.7-142.6c-11.1 0-20.1-9.1-20.1-20.3.1-11.3 9-20.4 20.1-20.4 11 0 20.1 9.2 20.1 20.4s-9 20.3-20.1 20.3z"/></symbol><symbol id="flatpaper-icon-fa-solid-shield-halved" viewBox="0 0 512 512" fill="currentColor"><path d="M256 0c4.6 0 9.2 1 13.4 2.9L457.7 82.8c22 9.3 38.4 31 38.3 57.2c-.5 99.2-41.3 280.7-213.6 363.2c-16.7 8-36.1 8-52.8 0C57.3 420.7 16.5 239.2 16 140c-.1-26.2 16.3-47.9 38.3-57.2L242.7 2.9C246.8 1 251.4 0 256 0zm0 66.8l0 378.1C394 378 431.1 230.1 432 141.4L256 66.8s0 0 0 0z"/></symbol><symbol id="flatpaper-icon-fa-solid-arrow-rotate-left" viewBox="0 0 512 512" fill="currentColor"><path d="M125.7 160l50.3 0c17.7 0 32 14.3 32 32s-14.3 32-32 32L48 224c-17.7 0-32-14.3-32-32L16 64c0-17.7 14.3-32 32-32s32 14.3 32 32l0 51.2L97.6 97.6c87.5-87.5 229.3-87.5 316.8 0s87.5 229.3 0 316.8s-229.3 87.5-316.8 0c-12.5-12.5-12.5-32.8 0-45.3s32.8-12.5 45.3 0c62.5 62.5 163.8 62.5 226.3 0s62.5-163.8 0-226.3s-163.8-62.5-226.3 0L125.7 160z"/></symbol><symbol id="flatpaper-icon-fa-solid-key" viewBox="0 0 512 512" fill="currentColor"><path d="M336 352c97.2 0 176-78.8 176-176S433.2 0 336 0S160 78.8 160 176c0 18.7 2.9 36.8 8.3 53.7L7 391c-4.5 4.5-7 10.6-7 17l0 80c0 13.3 10.7 24 24 24l80 0c13.3 0 24-10.7 24-24l0-40 40 0c13.3 0 24-10.7 24-24l0-40 40 0c6.4 0 12.5-2.5 17-7l33.3-33.3c16.9 5.4 35 8.3 53.7 8.3zM376 96a40 40 0 1 1 0 80 40 40 0 1 1 0-80z"/></symbol><symbol id="flatpaper-icon-fa-solid-mobile-screen-button" viewBox="0 0 384 512" fill="currentColor"><path d="M16 64C16 28.7 44.7 0 80 0L304 0c35.3 0 64 28.7 64 64l0 384c0 35.3-28.7 64-64 64L80 512c-35.3 0-64-28.7-64-64L16 64zM224 448a32 32 0 1 0 -64 0 32 32 0 1 0 64 0zM304 64L80 64l0 320 224 0 0-320z"/></symbol><symbol id="flatpaper-icon-fa-solid-bookmark" viewBox="0 0 384 512" fill="currentColor"><path d="M0 48V487.7C0 501.1 10.9 512 24.3 512c5 0 9.9-1.5 14-4.4L192 400 345.7 507.6c4.1 2.9 9 4.4 14 4.4c13.4 0 24.3-10.9 24.3-24.3V48c0-26.5-21.5-48-48-48H48C21.5 0 0 21.5 0 48z"/></symbol><symbol id="flatpaper-icon-fa-solid-pen-nib" viewBox="0 0 512 512" fill="currentColor"><path d="M368.4 18.3L312.7 74.1 437.9 199.3l55.7-55.7c21.9-21.9 21.9-57.3 0-79.2L447.6 18.3c-21.9-21.9-57.3-21.9-79.2 0zM288 94.6l-9.2 2.8L134.7 140.6c-19.9 6-35.7 21.2-42.3 41L3.8 445.8c-3.8 11.3-1 23.9 7.3 32.4L164.7 324.7c-3-6.3-4.7-13.3-4.7-20.7c0-26.5 21.5-48 48-48s48 21.5 48 48s-21.5 48-48 48c-7.4 0-14.4-1.7-20.7-4.7L33.7 500.9c8.6 8.3 21.1 11.2 32.4 7.3l264.3-88.6c19.7-6.6 35-22.4 41-42.3l43.2-144.1 2.7-9.2L288 94.6z"/></symbol><symbol id="flatpaper-icon-fa-solid-feather" viewBox="0 0 512 512" fill="currentColor"><path d="M278.5 215.6L23 471c-9.4 9.4-9.4 24.6 0 33.9s24.6 9.4 33.9 0l57-57 68 0c49.7 0 97.9-14.4 139-41c11.1-7.2 5.5-23-7.8-23c-5.1 0-9.2-4.1-9.2-9.2c0-4.1 2.7-7.6 6.5-8.8l81-24.3c2.5-.8 4.8-2.1 6.7-4l22.4-22.4c10.1-10.1 2.9-27.3-11.3-27.3l-32.2 0c-5.1 0-9.2-4.1-9.2-9.2c0-4.1 2.7-7.6 6.5-8.8l112-33.6c4-1.2 7.4-3.9 9.3-7.7C506.4 207.6 512 184.1 512 160c0-41-16.3-80.3-45.3-109.3l-5.5-5.5C432.3 16.3 393 0 352 0s-80.3 16.3-109.3 45.3L139 149C91 197 64 262.1 64 330l0 55.3L253.6 195.8c6.2-6.2 16.4-6.2 22.6 0c5.4 5.4 6.1 13.6 2.2 19.8z"/></symbol><symbol id="flatpaper-icon-fa-solid-users" viewBox="0 0 640 512" fill="currentColor"><path d="M144 0a80 80 0 1 1 0 160A80 80 0 1 1 144 0zM512 0a80 80 0 1 1 0 160A80 80 0 1 1 512 0zM0 298.7C0 239.8 47.8 192 106.7 192l42.7 0c15.9 0 31 3.5 44.6 9.7c-1.3 7.2-1.9 14.7-1.9 22.3c0 38.2 16.8 72.5 43.3 96c-.2 0-.4 0-.7 0L21.3 320C9.6 320 0 310.4 0 298.7zM405.3 320c-.2 0-.4 0-.7 0c26.6-23.5 43.3-57.8 43.3-96c0-7.6-.7-15-1.9-22.3c13.6-6.3 28.7-9.7 44.6-9.7l42.7 0C592.2 192 640 239.8 640 298.7c0 11.8-9.6 21.3-21.3 21.3l-213.3 0zM224 224a96 96 0 1 1 192 0 96 96 0 1 1 -192 0zM128 485.3C128 411.7 187.7 352 261.3 352l117.3 0C452.3 352 512 411.7 512 485.3c0 14.7-11.9 26.7-26.7 26.7l-330.7 0c-14.7 0-26.7-11.9-26.7-26.7z"/></symbol><symbol id="flatpaper-icon-fa-solid-user-secret" viewBox="0 0 448 512" fill="currentColor"><path d="M224 16c-6.7 0-10.8-2.8-15.5-6.1C201.9 5.4 194 0 176 0c-30.5 0-52 43.7-66 89.4C62.7 98.1 32 112.2 32 128c0 14.3 25 27.1 64.6 35.9c-.4 4-.6 8-.6 12.1c0 17 3.3 33.2 9.3 48l-59.9 0C38 224 32 230 32 237.4c0 1.7 .3 3.4 1 5l38.8 96.9C28.2 371.8 0 423.8 0 482.3C0 498.7 13.3 512 29.7 512l388.6 0c16.4 0 29.7-13.3 29.7-29.7c0-58.5-28.2-110.4-71.7-143L415 242.4c.6-1.6 1-3.3 1-5c0-7.4-6-13.4-13.4-13.4l-59.9 0c6-14.8 9.3-31 9.3-48c0-4.1-.2-8.1-.6-12.1C391 155.1 416 142.3 416 128c0-15.8-30.7-29.9-78-38.6C324 43.7 302.5 0 272 0c-18 0-25.9 5.4-32.5 9.9c-4.8 3.3-8.8 6.1-15.5 6.1zm56 208l-12.4 0c-16.5 0-31.1-10.6-36.3-26.2c-2.3-7-12.2-7-14.5 0c-5.2 15.6-19.9 26.2-36.3 26.2L168 224c-22.1 0-40-17.9-40-40l0-14.4c28.2 4.1 61 6.4 96 6.4s67.8-2.3 96-6.4l0 14.4c0 22.1-17.9 40-40 40zm-88 96l16 32L176 480 128 288l64 32zm128-32L272 480 240 352l16-32 64-32z"/></symbol><symbol id="flatpaper-icon-fa-solid-laptop" viewBox="0 0 640 512" fill="currentColor"><path d="M128 32C92.7 32 64 60.7 64 96l0 256 64 0 0-256 384 0 0 256 64 0 0-256c0-35.3-28.7-64-64-64L128 32zM19.2 384C8.6 384 0 392.6 0 403.2C0 445.6 34.4 480 76.8 480l486.4 0c42.4 0 76.8-34.4 76.8-76.8c0-10.6-8.6-19.2-19.2-19.2L19.2 384z"/></symbol><symbol id="flatpaper-icon-fa-solid-unlock" viewBox="0 0 448 512" fill="currentColor"><path d="M144 144c0-44.2 35.8-80 80-80c31.9 0 59.4 18.6 72.3 45.7c7.6 16 26.7 22.8 42.6 15.2s22.8-26.7 15.2-42.6C331 33.7 281.5 0 224 0C144.5 0 80 64.5 80 144l0 48-16 0c-35.3 0-64 28.7-64 64L0 448c0 35.3 28.7 64 64 64l320 0c35.3 0 64-28.7 64-64l0-192c0-35.3-28.7-64-64-64l-240 0 0-48z"/></symbol><symbol id="flatpaper-icon-fa-solid-book" viewBox="0 0 448 512" fill="currentColor"><path d="M96 0C43 0 0 43 0 96L0 416c0 53 43 96 96 96l288 0 32 0c17.7 0 32-14.3 32-32s-14.3-32-32-32l0-64c17.7 0 32-14.3 32-32l0-320c0-17.7-14.3-32-32-32L384 0 96 0zm0 384l256 0 0 64L96 448c-17.7 0-32-14.3-32-32s14.3-32 32-32zm32-240c0-8.8 7.2-16 16-16l192 0c8.8 0 16 7.2 16 16s-7.2 16-16 16l-192 0c-8.8 0-16-7.2-16-16zm16 48l192 0c8.8 0 16 7.2 16 16s-7.2 16-16 16l-192 0c-8.8 0-16-7.2-16-16s7.2-16 16-16z"/></symbol></defs></svg>